Dinish-CondensedBold.ufo
<glyph name="parenleft" format="2">
  <advance width="278"/>
  <unicode hex="0028"/>
  <outline>
    <contour>
      <point x="240" y="-86" type="line"/>
      <point x="185" y="50"/>
      <point x="156" y="195"/>
      <point x="156" y="336" type="curve" smooth="yes"/>
      <point x="156" y="477"/>
      <point x="185" y="622"/>
      <point x="240" y="758" type="curve"/>
      <point x="138" y="758" type="line"/>
      <point x="73" y="635"/>
      <point x="39" y="488"/>
      <point x="39" y="336" type="curve" smooth="yes"/>
      <point x="39" y="185"/>
      <point x="74" y="36"/>
      <point x="138" y="-86" type="curve"/>
    </contour>
  </outline>
</glyph>
<glyph name="nine" format="2">
  <advance width="409"/>
  <unicode hex="0039"/>
  <outline>
    <contour>
      <point x="85" y="0" type="line"/>
      <point x="215" y="0" type="line"/>
      <point x="341" y="282" type="line" smooth="yes"/>
      <point x="367" y="339"/>
      <point x="375" y="377"/>
      <point x="375" y="438" type="curve" smooth="yes"/>
      <point x="375" y="544" type="line" smooth="yes"/>
      <point x="375" y="657"/>
      <point x="317" y="717"/>
      <point x="206" y="717" type="curve" smooth="yes"/>
      <point x="97" y="717"/>
      <point x="35" y="656"/>
      <point x="35" y="548" type="curve" smooth="yes"/>
      <point x="35" y="424" type="line" smooth="yes"/>
      <point x="35" y="327"/>
      <point x="85" y="268"/>
      <point x="166" y="268" type="curve" smooth="yes"/>
      <point x="184" y="268"/>
      <point x="196" y="270"/>
      <point x="205" y="275" type="curve"/>
    </contour>
    <contour>
      <point x="206" y="379" type="curve" smooth="yes"/>
      <point x="176" y="379"/>
      <point x="161" y="397"/>
      <point x="161" y="433" type="curve" smooth="yes"/>
      <point x="161" y="548" type="line" smooth="yes"/>
      <point x="161" y="585"/>
      <point x="176" y="603"/>
      <point x="206" y="603" type="curve" smooth="yes"/>
      <point x="235" y="603"/>
      <point x="249" y="585"/>
      <point x="249" y="549" type="curve" smooth="yes"/>
      <point x="249" y="428" type="line" smooth="yes"/>
      <point x="249" y="397"/>
      <point x="233" y="379"/>
    </contour>
  </outline>
</glyph>
<glyph name="at" format="2">
  <advance width="731"/>
  <unicode hex="0040"/>
  <outline>
    <contour>
      <point x="528" y="6" type="line"/>
      <point x="476.291" y="-28.8038"/>
      <point x="429.357" y="-43"/>
      <point x="366" y="-43" type="curve" smooth="yes"/>
      <point x="216.146" y="-43"/>
      <point x="141" y="42.8333"/>
      <point x="141" y="214" type="curve" smooth="yes"/>
      <point x="141" y="378" type="line" smooth="yes"/>
      <point x="141" y="540.736"/>
      <point x="217.759" y="625"/>
      <point x="366" y="625" type="curve" smooth="yes"/>
      <point x="512.232" y="625"/>
      <point x="592" y="542.761"/>
      <point x="592" y="392" type="curve" smooth="yes"/>
      <point x="592" y="207" type="line" smooth="yes"/>
      <point x="592" y="167.133"/>
      <point x="579.977" y="150"/>
      <point x="552" y="150" type="curve" smooth="yes"/>
      <point x="527" y="150"/>
      <point x="512" y="167.625"/>
      <point x="512" y="197" type="curve" smooth="yes"/>
      <point x="512" y="507" type="line"/>
      <point x="404" y="507" type="line"/>
      <point x="404" y="468" type="line"/>
      <point x="385.872" y="501.234"/>
      <point x="362.734" y="515"/>
      <point x="325" y="515" type="curve" smooth="yes"/>
      <point x="254.007" y="515"/>
      <point x="220" y="469.01"/>
      <point x="220" y="373" type="curve" smooth="yes"/>
      <point x="220" y="211" type="line" smooth="yes"/>
      <point x="220" y="108.167"/>
      <point x="255.883" y="57"/>
      <point x="328" y="57" type="curve" smooth="yes"/>
      <point x="381.399" y="57"/>
      <point x="414.111" y="79.3482"/>
      <point x="429" y="126" type="curve"/>
      <point x="451.237" y="81.5257"/>
      <point x="494.601" y="57"/>
      <point x="551" y="57" type="curve" smooth="yes"/>
      <point x="642.067" y="57"/>
      <point x="692" y="115.078"/>
      <point x="692" y="221" type="curve" smooth="yes"/>
      <point x="692" y="383" type="line" smooth="yes"/>
      <point x="692" y="587.537"/>
      <point x="564.449" y="719"/>
      <point x="366" y="719" type="curve" smooth="yes"/>
      <point x="166.957" y="719"/>
      <point x="39" y="585.956"/>
      <point x="39" y="379" type="curve" smooth="yes"/>
      <point x="39" y="204" type="line" smooth="yes"/>
      <point x="39" y="-7.84557"/>
      <point x="162.852" y="-137"/>
      <point x="366" y="-137" type="curve" smooth="yes"/>
      <point x="445.167" y="-137"/>
      <point x="517.134" y="-113.903"/>
      <point x="581" y="-68" type="curve"/>
    </contour>
    <contour>
      <point x="366" y="152" type="curve" smooth="yes"/>
      <point x="339.283" y="152"/>
      <point x="327" y="169.637"/>
      <point x="327" y="208" type="curve" smooth="yes"/>
      <point x="327" y="368" type="line" smooth="yes"/>
      <point x="327" y="403.167"/>
      <point x="340.123" y="421"/>
      <point x="366" y="421" type="curve" smooth="yes"/>
      <point x="392.708" y="421"/>
      <point x="406" y="403.388"/>
      <point x="406" y="368" type="curve" smooth="yes"/>
      <point x="406" y="211" type="line" smooth="yes"/>
      <point x="406" y="171.088"/>
      <point x="393.059" y="152"/>
    </contour>
  </outline>
</glyph>
<glyph name="B" format="2">
  <advance width="466"/>
  <unicode hex="0042"/>
  <anchor x="200" y="770" name="top"/>
  <anchor x="200" y="-86" name="bottom"/>
  <outline>
    <contour>
      <point x="129.82" y="0" type="line"/>
      <point x="234" y="0" type="line" smooth="yes"/>
      <point x="372" y="0"/>
      <point x="428" y="59"/>
      <point x="428" y="205" type="curve" smooth="yes"/>
      <point x="428" y="299"/>
      <point x="406" y="345"/>
      <point x="349" y="371" type="curve"/>
      <point x="402" y="395"/>
      <point x="426" y="441"/>
      <point x="426" y="516" type="curve" smooth="yes"/>
      <point x="426" y="651"/>
      <point x="369" y="707"/>
      <point x="234" y="707" type="curve" smooth="yes"/>
      <point x="129.82" y="707" type="line"/>
      <point x="129.82" y="594" type="line"/>
      <point x="221" y="594" type="line" smooth="yes"/>
      <point x="280" y="594"/>
      <point x="300" y="572"/>
      <point x="300" y="508" type="curve" smooth="yes"/>
      <point x="300" y="446"/>
      <point x="278" y="423"/>
      <point x="221" y="423" type="curve" smooth="yes"/>
      <point x="129.82" y="423" type="line"/>
      <point x="129.82" y="314" type="line"/>
      <point x="220" y="314" type="line" smooth="yes"/>
      <point x="278" y="314"/>
      <point x="302" y="285"/>
      <point x="302" y="214" type="curve" smooth="yes"/>
      <point x="302" y="139"/>
      <point x="281" y="113"/>
      <point x="220" y="113" type="curve" smooth="yes"/>
      <point x="129.82" y="113" type="line"/>
    </contour>
    <contour>
      <point x="43" y="0" type="line"/>
      <point x="168" y="-0.0032" type="line"/>
      <point x="168" y="707.033" type="line"/>
      <point x="43" y="707" type="line"/>
    </contour>
  </outline>
  <guideline angle="90" name="h1" x="200" y="0"/>
</glyph>
<glyph name="G" format="2">
  <advance width="479"/>
  <unicode hex="0047"/>
  <anchor x="246" y="770" name="top"/>
  <anchor x="246" y="-86" name="bottom"/>
  <outline>
    <contour>
      <point x="240" y="278" type="line"/>
      <point x="314" y="278" type="line"/>
      <point x="314" y="203" type="line" smooth="yes"/>
      <point x="314" y="140"/>
      <point x="288" y="105"/>
      <point x="241" y="105" type="curve" smooth="yes"/>
      <point x="189.99" y="105"/>
      <point x="165" y="140"/>
      <point x="165" y="209" type="curve" smooth="yes"/>
      <point x="165" y="493" type="line" smooth="yes"/>
      <point x="165" y="567"/>
      <point x="190" y="603"/>
      <point x="241" y="603" type="curve" smooth="yes"/>
      <point x="286" y="603"/>
      <point x="314" y="570"/>
      <point x="314" y="518" type="curve" smooth="yes"/>
      <point x="314" y="497" type="line"/>
      <point x="440" y="497" type="line"/>
      <point x="440" y="518" type="line" smooth="yes"/>
      <point x="440" y="643"/>
      <point x="368" y="717"/>
      <point x="244" y="717" type="curve" smooth="yes"/>
      <point x="116" y="717"/>
      <point x="39" y="641"/>
      <point x="39" y="513" type="curve" smooth="yes"/>
      <point x="39" y="195" type="line" smooth="yes"/>
      <point x="39" y="65"/>
      <point x="111" y="-8"/>
      <point x="237" y="-8" type="curve" smooth="yes"/>
      <point x="362" y="-8"/>
      <point x="440" y="70"/>
      <point x="440" y="195" type="curve" smooth="yes"/>
      <point x="440" y="377" type="line"/>
      <point x="240" y="377" type="line"/>
    </contour>
  </outline>
  <guideline angle="90" name="h1" x="246" y="0"/>
</glyph>
<glyph name="T" format="2">
  <advance width="377"/>
  <unicode hex="0054"/>
  <anchor x="189" y="-86" name="bottom"/>
  <anchor x="189" y="770" name="top"/>
  <anchor x="156" y="0" name="b.cedilla"/>
  <outline>
    <contour>
      <point x="127" y="0" type="line"/>
      <point x="252" y="0" type="line"/>
      <point x="252" y="593" type="line"/>
      <point x="374" y="593" type="line"/>
      <point x="374" y="707" type="line"/>
      <point x="4" y="707" type="line"/>
      <point x="4" y="593" type="line"/>
      <point x="127" y="593" type="line"/>
    </contour>
  </outline>
  <guideline angle="90" name="h1" x="189" y="0"/>
</glyph>
<glyph name="q" format="2">
  <advance width="419"/>
  <unicode hex="0071"/>
  <anchor x="202" y="604" name="top"/>
  <anchor x="236" y="-86" name="bottom"/>
  <outline>
    <contour>
      <point x="260" y="-162" type="line"/>
      <point x="378" y="-162" type="line"/>
      <point x="378" y="541" type="line"/>
      <point x="264" y="541" type="line"/>
      <point x="264" y="498" type="line"/>
      <point x="239" y="532"/>
      <point x="208" y="549"/>
      <point x="169" y="549" type="curve" smooth="yes"/>
      <point x="86" y="549"/>
      <point x="39" y="486"/>
      <point x="39" y="374" type="curve" smooth="yes"/>
      <point x="39" y="167" type="line" smooth="yes"/>
      <point x="39" y="56"/>
      <point x="87" y="-8"/>
      <point x="171" y="-8" type="curve" smooth="yes"/>
      <point x="207" y="-8"/>
      <point x="237" y="6"/>
      <point x="260" y="33" type="curve"/>
    </contour>
    <contour>
      <point x="210" y="98" type="curve" smooth="yes"/>
      <point x="175.341" y="98"/>
      <point x="158" y="127.347"/>
      <point x="158" y="186" type="curve" smooth="yes"/>
      <point x="158" y="354" type="line" smooth="yes"/>
      <point x="158" y="411"/>
      <point x="176" y="442"/>
      <point x="209" y="442" type="curve" smooth="yes"/>
      <point x="244" y="442"/>
      <point x="262" y="412"/>
      <point x="262" y="354" type="curve" smooth="yes"/>
      <point x="262" y="186" type="line" smooth="yes"/>
      <point x="262" y="127"/>
      <point x="245" y="98"/>
    </contour>
  </outline>
  <guideline angle="90" name="h1" x="202" y="0"/>
</glyph>
<glyph name="y" format="2">
  <advance width="418"/>
  <unicode hex="0079"/>
  <anchor x="213" y="604" name="top"/>
  <anchor x="360" y="-105" name="dot"/>
  <anchor x="236" y="-86" name="bottom"/>
  <anchor x="213" y="578" name="t.ring"/>
  <outline>
    <contour>
      <point x="50" y="-162" type="line"/>
      <point x="54" y="-162" type="line" smooth="yes"/>
      <point x="183" y="-162"/>
      <point x="238" y="-130"/>
      <point x="261" y="-39" type="curve" smooth="yes"/>
      <point x="408" y="541" type="line"/>
      <point x="283" y="541" type="line"/>
      <point x="215" y="212" type="line"/>
      <point x="142" y="541" type="line"/>
      <point x="11" y="541" type="line"/>
      <point x="162" y="-30" type="line"/>
      <point x="158.86" y="-34.4889" type="line"/>
      <point x="146.912" y="-49.4963"/>
      <point x="124.958" y="-57"/>
      <point x="93" y="-57" type="curve" smooth="yes"/>
      <point x="50" y="-57" type="line"/>
    </contour>
  </outline>
  <guideline angle="90" name="h1" x="213" y="0"/>
</glyph>
<glyph name="braceleft" format="2">
  <advance width="339"/>
  <unicode hex="007B"/>
  <outline>
    <contour>
      <point x="294" y="-86" type="line"/>
      <point x="294" y="19" type="line"/>
      <point x="273" y="19" type="line" smooth="yes"/>
      <point x="243.555" y="19"/>
      <point x="230" y="39.1571"/>
      <point x="230" y="67" type="curve" smooth="yes"/>
      <point x="230" y="202" type="line" smooth="yes"/>
      <point x="230" y="261.761"/>
      <point x="217.081" y="313.475"/>
      <point x="168" y="339" type="curve"/>
      <point x="217.564" y="359.489"/>
      <point x="230" y="416.622"/>
      <point x="230" y="475" type="curve" smooth="yes"/>
      <point x="230" y="605" type="line" smooth="yes"/>
      <point x="230" y="636"/>
      <point x="245" y="652"/>
      <point x="273" y="652" type="curve" smooth="yes"/>
      <point x="294" y="652" type="line"/>
      <point x="294" y="758" type="line"/>
      <point x="236" y="758" type="line" smooth="yes"/>
      <point x="156" y="758"/>
      <point x="112" y="712"/>
      <point x="112" y="631" type="curve" smooth="yes"/>
      <point x="112" y="466" type="line" smooth="yes"/>
      <point x="112" y="410"/>
      <point x="95" y="391"/>
      <point x="45" y="391" type="curve"/>
      <point x="45" y="286" type="line"/>
      <point x="95" y="286"/>
      <point x="112" y="267"/>
      <point x="112" y="212" type="curve" smooth="yes"/>
      <point x="112" y="41" type="line" smooth="yes"/>
      <point x="112" y="-40"/>
      <point x="156" y="-86"/>
      <point x="236" y="-86" type="curve" smooth="yes"/>
    </contour>
  </outline>
</glyph>
<glyph name="copyright" format="2">
  <advance width="719"/>
  <unicode hex="00A9"/>
  <outline>
    <contour>
      <point x="360" y="-6" type="curve" smooth="yes"/>
      <point x="562" y="-6"/>
      <point x="681" y="126"/>
      <point x="681" y="351" type="curve" smooth="yes"/>
      <point x="681" y="578"/>
      <point x="563" y="709"/>
      <point x="360" y="709" type="curve" smooth="yes"/>
      <point x="156" y="709"/>
      <point x="39" y="578"/>
      <point x="39" y="351" type="curve" smooth="yes"/>
      <point x="39" y="126"/>
      <point x="158" y="-6"/>
    </contour>
    <contour>
      <point x="360" y="63" type="curve" smooth="yes"/>
      <point x="204" y="63"/>
      <point x="117" y="166"/>
      <point x="117" y="351" type="curve" smooth="yes"/>
      <point x="117" y="537"/>
      <point x="203" y="639"/>
      <point x="360" y="639" type="curve" smooth="yes"/>
      <point x="517" y="639"/>
      <point x="603" y="537"/>
      <point x="603" y="351" type="curve" smooth="yes"/>
      <point x="603" y="165"/>
      <point x="517" y="63"/>
    </contour>
    <contour>
      <point x="399" y="294" type="line"/>
      <point x="399" y="282" type="line" smooth="yes"/>
      <point x="399" y="246"/>
      <point x="386" y="228"/>
      <point x="361" y="228" type="curve" smooth="yes"/>
      <point x="336" y="228"/>
      <point x="324" y="249"/>
      <point x="324" y="292" type="curve" smooth="yes"/>
      <point x="324" y="413" type="line" smooth="yes"/>
      <point x="324" y="454"/>
      <point x="337" y="476"/>
      <point x="361" y="476" type="curve" smooth="yes"/>
      <point x="385" y="476"/>
      <point x="399" y="457"/>
      <point x="399" y="424" type="curve" smooth="yes"/>
      <point x="399" y="412" type="line"/>
      <point x="481" y="412" type="line"/>
      <point x="481" y="426" type="line" smooth="yes"/>
      <point x="481" y="509"/>
      <point x="441" y="551"/>
      <point x="361" y="551" type="curve" smooth="yes"/>
      <point x="278" y="551"/>
      <point x="239" y="507"/>
      <point x="239" y="412" type="curve" smooth="yes"/>
      <point x="239" y="293" type="line" smooth="yes"/>
      <point x="239" y="198"/>
      <point x="278" y="153"/>
      <point x="361" y="153" type="curve" smooth="yes"/>
      <point x="441" y="153"/>
      <point x="481" y="196"/>
      <point x="481" y="282" type="curve" smooth="yes"/>
      <point x="481" y="294" type="line"/>
    </contour>
  </outline>
</glyph>
<glyph name="registered" format="2">
  <advance width="438"/>
  <unicode hex="00AE"/>
  <outline>
    <contour>
      <point x="218" y="323" type="curve" smooth="yes"/>
      <point x="330.111" y="323"/>
      <point x="395" y="394.121"/>
      <point x="395" y="517" type="curve" smooth="yes"/>
      <point x="395" y="637.782"/>
      <point x="328.198" y="711"/>
      <point x="218" y="711" type="curve" smooth="yes"/>
      <point x="108.425" y="711"/>
      <point x="43" y="638.471"/>
      <point x="43" y="517" type="curve" smooth="yes"/>
      <point x="43" y="395.029"/>
      <point x="107.974" y="323"/>
    </contour>
    <contour>
      <point x="218" y="361" type="curve" smooth="yes"/>
      <point x="131.946" y="361"/>
      <point x="85" y="416.064"/>
      <point x="85" y="517" type="curve" smooth="yes"/>
      <point x="85" y="617.113"/>
      <point x="132.097" y="672"/>
      <point x="218" y="672" type="curve" smooth="yes"/>
      <point x="303.903" y="672"/>
      <point x="351" y="617.113"/>
      <point x="351" y="517" type="curve" smooth="yes"/>
      <point x="351" y="416.064"/>
      <point x="304.054" y="361"/>
    </contour>
    <contour>
      <point x="161" y="410" type="line"/>
      <point x="206" y="410" type="line"/>
      <point x="206" y="495" type="line"/>
      <point x="218" y="495" type="line"/>
      <point x="245" y="410" type="line"/>
      <point x="292" y="410" type="line"/>
      <point x="260" y="506" type="line"/>
      <point x="277.248" y="518.175"/>
      <point x="285.371" y="536.371"/>
      <point x="285" y="562" type="curve" smooth="yes"/>
      <point x="284.375" y="605.15"/>
      <point x="262.861" y="627"/>
      <point x="221" y="627" type="curve" smooth="yes"/>
      <point x="161" y="627" type="line"/>
    </contour>
    <contour>
      <point x="206" y="535" type="line"/>
      <point x="206" y="586" type="line"/>
      <point x="216" y="586" type="line" smooth="yes"/>
      <point x="234.492" y="586"/>
      <point x="240" y="580.263"/>
      <point x="240" y="561" type="curve" smooth="yes"/>
      <point x="240" y="541.75"/>
      <point x="233.769" y="535"/>
      <point x="216" y="535" type="curve" smooth="yes"/>
    </contour>
  </outline>
</glyph>
<glyph name="mu" format="2">
  <advance width="419"/>
  <unicode hex="00B5"/>
  <outline>
    <contour>
      <point x="42" y="-162" type="line"/>
      <point x="154" y="-162" type="line"/>
      <point x="154" y="4" type="line"/>
      <point x="165" y="-2"/>
      <point x="179" y="-5"/>
      <point x="196" y="-5" type="curve" smooth="yes"/>
      <point x="224.965" y="-5"/>
      <point x="253.267" y="13.1667"/>
      <point x="264" y="40" type="curve"/>
      <point x="264" y="0" type="line"/>
      <point x="378" y="0" type="line"/>
      <point x="378" y="541" type="line"/>
      <point x="259" y="541" type="line"/>
      <point x="259" y="156" type="line" smooth="yes"/>
      <point x="259" y="119.153"/>
      <point x="241.129" y="98"/>
      <point x="210" y="98" type="curve" smooth="yes"/>
      <point x="179.793" y="98"/>
      <point x="161" y="120.245"/>
      <point x="161" y="156" type="curve" smooth="yes"/>
      <point x="161" y="541" type="line"/>
      <point x="42" y="541" type="line"/>
    </contour>
  </outline>
</glyph>
<glyph name="paragraph" format="2">
  <advance width="566"/>
  <unicode hex="00B6"/>
  <outline>
    <contour>
      <point x="213" y="-162" type="line"/>
      <point x="327" y="-162" type="line"/>
      <point x="327" y="610" type="line"/>
      <point x="389" y="610" type="line"/>
      <point x="389" y="-162" type="line"/>
      <point x="502" y="-162" type="line"/>
      <point x="502" y="707" type="line"/>
      <point x="248" y="707" type="line" smooth="yes"/>
      <point x="127.898" y="707"/>
      <point x="43" y="615.89"/>
      <point x="43" y="487" type="curve" smooth="yes"/>
      <point x="43" y="367.735"/>
      <point x="116.215" y="272.987"/>
      <point x="213" y="267" type="curve"/>
    </contour>
  </outline>
</glyph>
<glyph name="Eth" format="2">
  <advance width="494"/>
  <unicode hex="00D0"/>
  <outline>
    <component base="D" xOffset="20"/>
    <contour>
      <point x="20" y="307" type="line"/>
      <point x="276" y="307" type="line"/>
      <point x="276" y="420" type="line"/>
      <point x="20" y="420" type="line"/>
    </contour>
  </outline>
</glyph>
<glyph name="Thorn" format="2">
  <advance width="444"/>
  <unicode hex="00DE"/>
  <outline>
    <contour>
      <point x="43" y="0" type="line"/>
      <point x="168" y="0" type="line"/>
      <point x="168" y="147" type="line"/>
      <point x="233" y="147" type="line" smooth="yes"/>
      <point x="366" y="147"/>
      <point x="427" y="217"/>
      <point x="427" y="371" type="curve" smooth="yes"/>
      <point x="427" y="526"/>
      <point x="368" y="593"/>
      <point x="233" y="593" type="curve" smooth="yes"/>
      <point x="168" y="593" type="line"/>
      <point x="168" y="707" type="line"/>
      <point x="43" y="707" type="line"/>
    </contour>
    <contour>
      <point x="168" y="260" type="line"/>
      <point x="168" y="479" type="line"/>
      <point x="229" y="479" type="line" smooth="yes"/>
      <point x="279" y="479"/>
      <point x="301" y="446"/>
      <point x="301" y="371" type="curve" smooth="yes"/>
      <point x="301" y="294"/>
      <point x="279" y="260"/>
      <point x="229" y="260" type="curve" smooth="yes"/>
    </contour>
  </outline>
</glyph>
<glyph name="dcaron" format="2">
  <advance width="525"/>
  <unicode hex="010F"/>
  <outline>
    <component base="d"/>
    <contour>
      <point x="430" y="517" type="line"/>
      <point x="525" y="600" type="line"/>
      <point x="525" y="707" type="line"/>
      <point x="430" y="707" type="line"/>
    </contour>
  </outline>
</glyph>
<glyph name="Lslash" format="2">
  <advance width="375"/>
  <unicode hex="0141"/>
  <outline>
    <component base="L"/>
    <contour>
      <point x="20.5" y="279" type="line"/>
      <point x="268" y="396" type="line"/>
      <point x="268" y="509" type="line"/>
      <point x="20.5" y="392" type="line"/>
    </contour>
  </outline>
</glyph>
<glyph name="lslash" format="2">
  <advance width="245"/>
  <unicode hex="0142"/>
  <outline>
    <component base="l"/>
    <contour>
      <point x="0.5" y="279" type="line"/>
      <point x="210" y="378" type="line"/>
      <point x="209" y="490" type="line"/>
      <point x="0.5" y="392" type="line"/>
    </contour>
  </outline>
</glyph>
<glyph name="rcommaaccent" format="2">
  <advance width="313"/>
  <unicode hex="0157"/>
  <outline>
    <contour>
      <point x="42" y="0" type="line"/>
      <point x="161" y="0" type="line"/>
      <point x="161" y="340" type="line" smooth="yes"/>
      <point x="161" y="397"/>
      <point x="193" y="432"/>
      <point x="245" y="432" type="curve" smooth="yes"/>
      <point x="264" y="432"/>
      <point x="282" y="429"/>
      <point x="299" y="422" type="curve"/>
      <point x="299" y="547" type="line"/>
      <point x="290" y="550"/>
      <point x="278" y="551"/>
      <point x="262" y="551" type="curve" smooth="yes"/>
      <point x="214" y="551"/>
      <point x="180" y="531"/>
      <point x="156" y="490" type="curve"/>
      <point x="156" y="541" type="line"/>
      <point x="42" y="541" type="line"/>
    </contour>
    <contour>
      <point x="52" y="-173" type="line"/>
      <point x="147" y="-90" type="line"/>
      <point x="147" y="-30" type="line"/>
      <point x="52" y="-30" type="line"/>
    </contour>
  </outline>
</glyph>
<glyph name="tcaron" format="2">
  <advance width="345"/>
  <unicode hex="0165"/>
  <outline>
    <component base="t"/>
    <contour>
      <point x="250" y="567" type="line"/>
      <point x="345" y="650" type="line"/>
      <point x="345" y="757" type="line"/>
      <point x="250" y="757" type="line"/>
    </contour>
  </outline>
</glyph>
<glyph name="Tbar" format="2">
  <advance width="377"/>
  <unicode hex="0166"/>
  <outline>
    <component base="T"/>
    <contour>
      <point x="71" y="310" type="line"/>
      <point x="314" y="310" type="line"/>
      <point x="314" y="417" type="line"/>
      <point x="71" y="417" type="line"/>
    </contour>
  </outline>
</glyph>
<glyph name="Schwa" format="2">
  <advance width="479"/>
  <unicode hex="018F"/>
  <outline>
    <contour>
      <point x="165" y="492" type="line"/>
      <point x="165" y="510" type="line" smooth="yes"/>
      <point x="165" y="571"/>
      <point x="191" y="604"/>
      <point x="238" y="604" type="curve" smooth="yes"/>
      <point x="289.01" y="604"/>
      <point x="314" y="569"/>
      <point x="314" y="500" type="curve" smooth="yes"/>
      <point x="314" y="216" type="line" smooth="yes"/>
      <point x="314" y="142"/>
      <point x="289" y="106"/>
      <point x="238" y="106" type="curve" smooth="yes"/>
      <point x="192" y="106"/>
      <point x="165" y="141"/>
      <point x="165" y="200" type="curve" smooth="yes"/>
      <point x="165" y="396.006" type="line"/>
      <point x="39" y="396.006" type="line"/>
      <point x="39" y="199" type="line" smooth="yes"/>
      <point x="39" y="67"/>
      <point x="110" y="-8"/>
      <point x="235" y="-8" type="curve" smooth="yes"/>
      <point x="363" y="-8"/>
      <point x="440" y="68"/>
      <point x="440" y="196" type="curve" smooth="yes"/>
      <point x="440" y="514" type="line" smooth="yes"/>
      <point x="440" y="644"/>
      <point x="368" y="717"/>
      <point x="242" y="717" type="curve" smooth="yes"/>
      <point x="115" y="717"/>
      <point x="40" y="640"/>
      <point x="40" y="511" type="curve" smooth="yes"/>
      <point x="40" y="492" type="line"/>
    </contour>
    <contour>
      <point x="89.6638" y="396" type="line"/>
      <point x="89.6638" y="283" type="line"/>
      <point x="346.749" y="283" type="line"/>
      <point x="346.749" y="396" type="line"/>
    </contour>
  </outline>
</glyph>
<glyph name="obarred" format="2">
  <advance width="420"/>
  <unicode hex="0275"/>
  <outline>
    <component base="o"/>
    <contour>
      <point x="142.64" y="218" type="line"/>
      <point x="278.36" y="218" type="line"/>
      <point x="278.36" y="331" type="line"/>
      <point x="142.64" y="331" type="line"/>
    </contour>
  </outline>
</glyph>
<glyph name="circumflex" format="2">
  <advance width="512"/>
  <unicode hex="02C6"/>
  <outline>
    <contour>
      <point x="109" y="598" type="line"/>
      <point x="198" y="598" type="line"/>
      <point x="256" y="680" type="line"/>
      <point x="313" y="598" type="line"/>
      <point x="402" y="598" type="line"/>
      <point x="297" y="750" type="line"/>
      <point x="212" y="750" type="line"/>
    </contour>
  </outline>
</glyph>
<glyph name="uni0303" format="2">
  <unicode hex="0303"/>
  <anchor x="0" y="604" name="_top"/>
  <outline>
    <contour>
      <point x="-115.5" y="603" type="line"/>
      <point x="-91.1977" y="632.522"/>
      <point x="-74.4335" y="643"/>
      <point x="-51.5" y="643" type="curve" smooth="yes"/>
      <point x="-11.5789" y="643"/>
      <point x="3.47448" y="607"/>
      <point x="48.5" y="607" type="curve" smooth="yes"/>
      <point x="75.8289" y="607"/>
      <point x="88.8211" y="614.369"/>
      <point x="115.5" y="645" type="curve"/>
      <point x="115.5" y="739" type="line"/>
      <point x="97.3223" y="720.822"/>
      <point x="80.2182" y="699"/>
      <point x="52.5" y="699" type="curve" smooth="yes"/>
      <point x="11.053" y="699"/>
      <point x="1.96009" y="735"/>
      <point x="-47.5" y="735" type="curve" smooth="yes"/>
      <point x="-75.7297" y="735"/>
      <point x="-92.6857" y="725.774"/>
      <point x="-115.5" y="698" type="curve"/>
    </contour>
  </outline>
  <guideline angle="90" name="h1" x="0" y="0"/>
</glyph>
<glyph name="Tshecyr" format="2">
  <advance width="555"/>
  <unicode hex="040B"/>
  <outline>
    <contour>
      <point x="127" y="0" type="line"/>
      <point x="252" y="0" type="line"/>
      <point x="252" y="593" type="line"/>
      <point x="374" y="593" type="line"/>
      <point x="374" y="707" type="line"/>
      <point x="4" y="707" type="line"/>
      <point x="4" y="593" type="line"/>
      <point x="127" y="593" type="line"/>
    </contour>
    <contour>
      <point x="517" y="0" type="line"/>
      <point x="517" y="223" type="line" smooth="yes"/>
      <point x="517" y="377.015"/>
      <point x="456.987" y="466"/>
      <point x="323" y="466" type="curve" smooth="yes"/>
      <point x="299.604" y="466"/>
      <point x="275.5" y="460"/>
      <point x="252.104" y="446" type="curve"/>
      <point x="237.82" y="446" type="line"/>
      <point x="237.82" y="332" type="line"/>
      <point x="252.104" y="332" type="line"/>
      <point x="274.18" y="346"/>
      <point x="296.924" y="352"/>
      <point x="319" y="352" type="curve" smooth="yes"/>
      <point x="369.101" y="352"/>
      <point x="391" y="298.847"/>
      <point x="391" y="223" type="curve" smooth="yes"/>
      <point x="391" y="-0.0405273" type="line"/>
    </contour>
  </outline>
</glyph>
<glyph name="Elcyr" format="2">
  <advance width="517"/>
  <unicode hex="041B"/>
  <outline>
    <contour>
      <point x="347.416" y="0" type="line"/>
      <point x="473.416" y="0" type="line"/>
      <point x="473.416" y="707.042" type="line"/>
      <point x="347.416" y="707" type="line"/>
    </contour>
    <contour>
      <point x="20.5" y="0" type="line"/>
      <point x="173.604" y="0"/>
      <point x="204.297" y="99.1314"/>
      <point x="212.445" y="182.914" type="curve" smooth="yes"/>
      <point x="263.416" y="707.041" type="line"/>
      <point x="137.416" y="707" type="line"/>
      <point x="95.5767" y="263.425" type="line" smooth="yes"/>
      <point x="86.1023" y="162.979"/>
      <point x="74.0818" y="114.148"/>
      <point x="20.5001" y="114.148" type="curve"/>
    </contour>
    <contour>
      <point x="240.32" y="593" type="line"/>
      <point x="441" y="593" type="line"/>
      <point x="441" y="707" type="line"/>
      <point x="240.32" y="707" type="line"/>
    </contour>
  </outline>
  <guideline angle="84.4901" x="233" y="396"/>
  <guideline angle="264.665" x="137" y="707"/>
</glyph>
<glyph name="Efcyr" format="2">
  <advance width="584"/>
  <unicode hex="0424"/>
  <anchor x="304" y="770" name="top"/>
  <outline>
    <contour>
      <point x="241" y="185" type="line"/>
      <point x="189.99" y="185"/>
      <point x="165" y="220"/>
      <point x="165" y="289" type="curve" smooth="yes"/>
      <point x="165" y="413" type="line" smooth="yes"/>
      <point x="165" y="487"/>
      <point x="190" y="523"/>
      <point x="241" y="523" type="curve"/>
      <point x="241" y="637" type="line"/>
      <point x="113" y="637"/>
      <point x="39" y="561"/>
      <point x="39" y="433" type="curve" smooth="yes"/>
      <point x="39" y="275" type="line" smooth="yes"/>
      <point x="39" y="145"/>
      <point x="115" y="72"/>
      <point x="241" y="72" type="curve"/>
    </contour>
    <contour>
      <point x="231" y="0" type="line"/>
      <point x="356" y="0" type="line"/>
      <point x="356" y="707" type="line"/>
      <point x="231" y="707" type="line"/>
    </contour>
    <contour>
      <point x="346" y="72" type="line"/>
      <point x="471" y="72"/>
      <point x="545" y="150"/>
      <point x="545" y="275" type="curve" smooth="yes"/>
      <point x="545" y="433" type="line" smooth="yes"/>
      <point x="545" y="562"/>
      <point x="470" y="637"/>
      <point x="346" y="637" type="curve"/>
      <point x="346" y="523" type="line"/>
      <point x="394" y="523"/>
      <point x="419" y="485"/>
      <point x="419" y="413" type="curve" smooth="yes"/>
      <point x="419" y="289" type="line" smooth="yes"/>
      <point x="419" y="225"/>
      <point x="391" y="185"/>
      <point x="346" y="185" type="curve"/>
    </contour>
  </outline>
  <guideline angle="90" name="h1" x="304" y="0"/>
</glyph>
<glyph name="Tsecyr" format="2">
  <advance width="537"/>
  <unicode hex="0426"/>
  <outline>
    <contour>
      <point x="333" y="0" type="line"/>
      <point x="459" y="0" type="line"/>
      <point x="459" y="707" type="line"/>
      <point x="333" y="707" type="line"/>
    </contour>
    <contour>
      <point x="147.32" y="-0.1003" type="line"/>
      <point x="347.372" y="-0.1003" type="line"/>
      <point x="347.372" y="113.9" type="line"/>
      <point x="147.32" y="113.9" type="line"/>
    </contour>
    <contour>
      <point x="43" y="0" type="line"/>
      <point x="169" y="0" type="line"/>
      <point x="169" y="707" type="line"/>
      <point x="43" y="707" type="line"/>
    </contour>
    <contour>
      <point x="157.35" y="0" type="line"/>
      <point x="401" y="0" type="line"/>
      <point x="401" y="-170" type="line"/>
      <point x="527" y="-170" type="line"/>
      <point x="527" y="114.2" type="line"/>
      <point x="157.35" y="114" type="line"/>
    </contour>
  </outline>
</glyph>
<glyph name="Shacyr" format="2">
  <advance width="806"/>
  <unicode hex="0428"/>
  <anchor x="677" y="695" name="top"/>
  <outline>
    <component base="I" xOffset="-3"/>
    <component base="I" xOffset="293.129"/>
    <component base="I" xOffset="589.396"/>
    <contour>
      <point x="127.32" y="-0.1003" type="line"/>
      <point x="697.341" y="-0.1003" type="line"/>
      <point x="697.341" y="113.9" type="line"/>
      <point x="127.32" y="113.9" type="line"/>
    </contour>
  </outline>
  <guideline angle="90" x="44" y="0"/>
  <guideline angle="90" x="170" y="0"/>
  <guideline angle="90" x="340" y="0"/>
  <guideline angle="90" x="466" y="0"/>
  <guideline angle="90" x="636" y="0"/>
  <guideline angle="90" x="762" y="0"/>
  <guideline angle="0" x="0" y="707"/>
</glyph>
<glyph name="Ereversedcyr" format="2">
  <advance width="479"/>
  <unicode hex="042D"/>
  <anchor x="245" y="770" name="top"/>
  <outline>
    <component base="C" xScale="-1" xOffset="479"/>
    <contour>
      <point x="173.028" y="303" type="line"/>
      <point x="346.748" y="303" type="line"/>
      <point x="346.748" y="416" type="line"/>
      <point x="173.028" y="416" type="line"/>
    </contour>
  </outline>
  <guideline angle="90" name="h1" x="245" y="0"/>
</glyph>
<glyph name="becyr" format="2">
  <advance width="420"/>
  <unicode hex="0431"/>
  <outline>
    <contour>
      <point x="211" y="-8" type="curve" smooth="yes"/>
      <point x="328" y="-8"/>
      <point x="382" y="54"/>
      <point x="382" y="187" type="curve" smooth="yes"/>
      <point x="382" y="352.635" type="line" smooth="yes"/>
      <point x="382" y="424"/>
      <point x="328" y="486"/>
      <point x="253.432" y="486" type="curve" smooth="yes"/>
      <point x="212.144" y="486"/>
      <point x="176" y="472.22"/>
      <point x="161" y="450.139" type="curve"/>
      <point x="39" y="450.424" type="line"/>
      <point x="39" y="187" type="line" smooth="yes"/>
      <point x="39" y="56"/>
      <point x="95" y="-8"/>
    </contour>
    <contour>
      <point x="210" y="98" type="curve" smooth="yes"/>
      <point x="176" y="98"/>
      <point x="158" y="128"/>
      <point x="158" y="186" type="curve" smooth="yes"/>
      <point x="158" y="291" type="line" smooth="yes"/>
      <point x="158" y="349"/>
      <point x="176" y="379"/>
      <point x="210" y="379" type="curve" smooth="yes"/>
      <point x="245" y="379"/>
      <point x="263" y="349"/>
      <point x="263" y="291" type="curve" smooth="yes"/>
      <point x="263" y="186" type="line" smooth="yes"/>
      <point x="263" y="128"/>
      <point x="245" y="98"/>
    </contour>
    <contour>
      <point x="39" y="379.64" type="line"/>
      <point x="158" y="380.346" type="line"/>
      <point x="158" y="440" type="line" smooth="yes"/>
      <point x="158" y="552.662"/>
      <point x="218.494" y="536.754"/>
      <point x="329.646" y="586.102" type="curve"/>
      <point x="329.646" y="707" type="line"/>
      <point x="170.667" y="634.77"/>
      <point x="39" y="680.433"/>
      <point x="39" y="419.706" type="curve" smooth="yes"/>
    </contour>
  </outline>
</glyph>
<glyph name="decyr" format="2">
  <advance width="544"/>
  <unicode hex="0434"/>
  <outline>
    <contour>
      <point x="404.654" y="-170" type="line"/>
      <point x="523.654" y="-170" type="line"/>
      <point x="523.654" y="119" type="line"/>
      <point x="384.654" y="119" type="line"/>
      <point x="384.654" y="-0.49234" type="line"/>
      <point x="404.654" y="-0.49234" type="line"/>
    </contour>
    <contour>
      <point x="20" y="-170" type="line"/>
      <point x="139" y="-170" type="line"/>
      <point x="139" y="119.196" type="line"/>
      <point x="20" y="119.196" type="line"/>
    </contour>
    <contour>
      <point x="337" y="0" type="line"/>
      <point x="456" y="0" type="line"/>
      <point x="456" y="541" type="line"/>
      <point x="337" y="541" type="line"/>
    </contour>
    <contour>
      <point x="60.3108" y="119.196" type="curve"/>
      <point x="71.8349" y="0.400696" type="line"/>
      <point x="152.537" y="0"/>
      <point x="238.502" y="119"/>
      <point x="249" y="264.4" type="curve" smooth="yes"/>
      <point x="269" y="541.401" type="line"/>
      <point x="150" y="541.401" type="line"/>
      <point x="130" y="297.331" type="line" smooth="yes"/>
      <point x="119.99" y="175.177"/>
      <point x="98.1398" y="119.196"/>
    </contour>
    <contour>
      <point x="98.1398" y="-0.0761" type="line"/>
      <point x="377.243" y="0.2839" type="line"/>
      <point x="377.243" y="119.284" type="line"/>
      <point x="98.1398" y="119.284" type="line"/>
    </contour>
    <contour>
      <point x="239" y="421.64" type="line"/>
      <point x="377.243" y="422" type="line"/>
      <point x="377.243" y="541" type="line"/>
      <point x="239" y="541.004" type="line"/>
    </contour>
  </outline>
  <guideline angle="265.314" x="150" y="541"/>
  <guideline angle="85.8703" x="249" y="264"/>
</glyph>
<glyph name="elcyr" format="2">
  <advance width="449"/>
  <unicode hex="043B"/>
  <outline>
    <contour>
      <point x="288" y="0" type="line"/>
      <point x="407" y="0" type="line"/>
      <point x="407" y="541" type="line"/>
      <point x="288" y="541" type="line"/>
    </contour>
    <contour>
      <point x="190" y="421.64" type="line"/>
      <point x="328.243" y="422" type="line"/>
      <point x="328.243" y="541" type="line"/>
      <point x="190" y="541.004" type="line"/>
    </contour>
    <contour>
      <point x="11.3108" y="119.2" type="curve"/>
      <point x="10.8349" y="0.400696" type="line"/>
      <point x="116.624" y="-0.124604"/>
      <point x="184.575" y="50.2805"/>
      <point x="190.595" y="133.745" type="curve" smooth="yes"/>
      <point x="220" y="541.401" type="line"/>
      <point x="101" y="541.401" type="line"/>
      <point x="72.3346" y="191.282" type="line" smooth="yes"/>
      <point x="68.877" y="149.051"/>
      <point x="49.1398" y="119.2"/>
    </contour>
  </outline>
  <guideline angle="265.314" x="101" y="541"/>
  <guideline angle="85.8703" x="200" y="264"/>
</glyph>
<glyph name="hardcyr" format="2">
  <advance width="486"/>
  <unicode hex="044A"/>
  <outline>
    <contour>
      <point x="112" y="0" type="line"/>
      <point x="231" y="0" type="line"/>
      <point x="231" y="541" type="line"/>
      <point x="112" y="541" type="line"/>
    </contour>
    <contour>
      <point x="167" y="422" type="line"/>
      <point x="167" y="541" type="line"/>
      <point x="0" y="541" type="line"/>
      <point x="0" y="421.64" type="line"/>
    </contour>
    <contour>
      <point x="211" y="0" type="line"/>
      <point x="314" y="0" type="line" smooth="yes"/>
      <point x="387" y="0"/>
      <point x="448" y="76"/>
      <point x="448" y="169" type="curve" smooth="yes"/>
      <point x="448" y="268.877"/>
      <point x="407.751" y="350"/>
      <point x="293" y="350" type="curve" smooth="yes"/>
      <point x="211" y="350" type="line"/>
      <point x="211" y="230" type="line"/>
      <point x="280" y="230" type="line" smooth="yes"/>
      <point x="315" y="230"/>
      <point x="329" y="204"/>
      <point x="329" y="170" type="curve" smooth="yes"/>
      <point x="329" y="136"/>
      <point x="313" y="120"/>
      <point x="280" y="120" type="curve" smooth="yes"/>
      <point x="211" y="120" type="line"/>
    </contour>
  </outline>
</glyph>
<glyph name="yucyr" format="2">
  <advance width="610"/>
  <unicode hex="044E"/>
  <anchor x="364" y="604" name="top"/>
  <outline>
    <component base="dotlessi" xOffset="-4"/>
    <component base="o" xOffset="190"/>
    <contour>
      <point x="141" y="230" type="line"/>
      <point x="279" y="230" type="line"/>
      <point x="279" y="350" type="line"/>
      <point x="141" y="350" type="line"/>
    </contour>
  </outline>
</glyph>
<glyph name="zdotbelow" format="2">
  <advance width="393"/>
  <unicode hex="1E93"/>
  <outline>
    <contour>
      <point x="39" y="0" type="line"/>
      <point x="354" y="0" type="line"/>
      <point x="354" y="100" type="line"/>
      <point x="161" y="100" type="line"/>
      <point x="354" y="440" type="line"/>
      <point x="354" y="541" type="line"/>
      <point x="39" y="541" type="line"/>
      <point x="39" y="440" type="line"/>
      <point x="236" y="440" type="line"/>
      <point x="39" y="100" type="line"/>
    </contour>
    <contour>
      <point x="137" y="-186" type="line"/>
      <point x="261" y="-186" type="line"/>
      <point x="261" y="-86" type="line"/>
      <point x="137" y="-86" type="line"/>
    </contour>
  </outline>
</glyph>
<glyph name="quotesinglbase" format="2">
  <advance width="175"/>
  <unicode hex="201A"/>
  <outline>
    <contour>
      <point x="30" y="-164" type="line"/>
      <point x="145" y="-71" type="line"/>
      <point x="145" y="136" type="line"/>
      <point x="30" y="136" type="line"/>
    </contour>
  </outline>
</glyph>
<glyph name="ellipsis" format="2">
  <advance width="651"/>
  <unicode hex="2026"/>
  <outline>
    <contour>
      <point x="30" y="0" type="line"/>
      <point x="150" y="0" type="line"/>
      <point x="150" y="135" type="line"/>
      <point x="30" y="135" type="line"/>
    </contour>
    <contour>
      <point x="266" y="0" type="line"/>
      <point x="386" y="0" type="line"/>
      <point x="386" y="135" type="line"/>
      <point x="266" y="135" type="line"/>
    </contour>
    <contour>
      <point x="502" y="0" type="line"/>
      <point x="622" y="0" type="line"/>
      <point x="622" y="135" type="line"/>
      <point x="502" y="135" type="line"/>
    </contour>
  </outline>
</glyph>
<glyph name="fi" format="2">
  <advance width="504"/>
  <unicode hex="FB01"/>
  <outline>
    <contour>
      <point x="82" y="0" type="line"/>
      <point x="200" y="0" type="line"/>
      <point x="200" y="458" type="line"/>
      <point x="272" y="458" type="line"/>
      <point x="272" y="541" type="line"/>
      <point x="200" y="541" type="line"/>
      <point x="200" y="563" type="line" smooth="yes"/>
      <point x="200" y="605.686"/>
      <point x="213.779" y="623"/>
      <point x="257" y="623" type="curve"/>
      <point x="272" y="623" type="line"/>
      <point x="272" y="707" type="line"/>
      <point x="221" y="707" type="line" smooth="yes"/>
      <point x="127.995" y="707"/>
      <point x="82" y="661"/>
      <point x="82" y="571" type="curve" smooth="yes"/>
      <point x="82" y="541" type="line"/>
      <point x="28" y="541" type="line"/>
      <point x="28" y="458" type="line"/>
      <point x="82" y="458" type="line"/>
    </contour>
    <contour>
      <point x="340" y="0" type="line"/>
      <point x="459" y="0" type="line"/>
      <point x="459" y="541" type="line"/>
      <point x="340" y="541" type="line"/>
    </contour>
    <contour>
      <point x="340" y="607" type="line"/>
      <point x="459" y="607" type="line"/>
      <point x="459" y="707" type="line"/>
      <point x="340" y="707" type="line"/>
    </contour>
  </outline>
  <guideline angle="90" color="0.627451,0.627451,0.643137,1" name="caret.1" x="310" y="0"/>
</glyph>
<glyph name="Sacute.loclPLK" format="2">
  <advance width="436"/>
  <outline>
    <component base="S"/>
    <contour>
      <point x="175" y="791" type="line"/>
      <point x="276" y="791" type="line"/>
      <point x="322" y="930" type="line"/>
      <point x="196" y="930" type="line"/>
    </contour>
  </outline>
</glyph>
<glyph name="cacute.loclPLK" format="2">
  <advance width="416"/>
  <outline>
    <component base="c"/>
    <contour>
      <point x="165" y="604" type="line"/>
      <point x="266" y="604" type="line"/>
      <point x="312" y="743" type="line"/>
      <point x="186" y="743" type="line"/>
    </contour>
  </outline>
</glyph>
<glyph name="four.dnom" format="2">
  <advance width="295"/>
  <outline>
    <contour>
      <point x="20" y="66" type="line"/>
      <point x="162" y="66" type="line"/>
      <point x="162" y="0" type="line"/>
      <point x="246" y="0" type="line"/>
      <point x="246" y="66" type="line"/>
      <point x="275" y="66" type="line"/>
      <point x="275" y="142" type="line"/>
      <point x="246" y="142" type="line"/>
      <point x="246" y="225" type="line"/>
      <point x="162" y="225" type="line"/>
      <point x="162" y="142" type="line"/>
      <point x="105" y="142" type="line"/>
      <point x="198" y="427" type="line"/>
      <point x="114" y="427" type="line"/>
      <point x="20" y="142" type="line"/>
    </contour>
  </outline>
</glyph>
<glyph name="four.osf" format="2">
  <advance width="437"/>
  <outline>
    <contour>
      <point x="28" y="0" type="line"/>
      <point x="240" y="0" type="line"/>
      <point x="240" y="-162" type="line"/>
      <point x="366" y="-162" type="line"/>
      <point x="366" y="0" type="line"/>
      <point x="410" y="0" type="line"/>
      <point x="410" y="113" type="line"/>
      <point x="366" y="113" type="line"/>
      <point x="366" y="245" type="line"/>
      <point x="240" y="245" type="line"/>
      <point x="240" y="113" type="line"/>
      <point x="154" y="113" type="line"/>
      <point x="294" y="551" type="line"/>
      <point x="168" y="551" type="line"/>
      <point x="28" y="113" type="line"/>
    </contour>
  </outline>
</glyph>
<glyph name="kacyr.loclBGR" format="2">
  <advance width="429"/>
  <outline>
    <contour>
      <point x="42" y="0" type="line"/>
      <point x="161" y="0" type="line"/>
      <point x="161" y="707" type="line"/>
      <point x="42" y="707" type="line"/>
    </contour>
    <contour>
      <point x="153" y="308" type="line"/>
      <point x="262" y="308" type="line"/>
      <point x="414" y="541" type="line"/>
      <point x="290" y="541" type="line"/>
    </contour>
    <contour>
      <point x="288" y="0" type="line"/>
      <point x="419" y="0" type="line"/>
      <point x="269" y="343" type="line"/>
      <point x="150" y="343" type="line"/>
    </contour>
    <contour>
      <point x="141" y="230" type="line"/>
      <point x="273" y="230" type="line"/>
      <point x="273" y="350" type="line"/>
      <point x="141" y="350" type="line"/>
    </contour>
  </outline>
</glyph>
<glyph name="one.osf" format="2">
  <advance width="300"/>
  <outline>
    <contour>
      <point x="125" y="0" type="line"/>
      <point x="253" y="0" type="line"/>
      <point x="253" y="549" type="line"/>
      <point x="125" y="549" type="line"/>
      <point x="28" y="470" type="line"/>
      <point x="28" y="323" type="line"/>
      <point x="125" y="402" type="line"/>
    </contour>
  </outline>
</glyph>
<glyph name="t_t" format="2">
  <advance width="595"/>
  <outline>
    <component base="t"/>
    <component base="t" xOffset="286"/>
    <contour>
      <point x="429.854" y="458" type="line"/>
      <point x="429.854" y="541" type="line"/>
      <point x="131.293" y="541" type="line"/>
      <point x="131.293" y="458" type="line"/>
    </contour>
  </outline>
</glyph>
<glyph name="tsecyr.loclBGR" format="2">
  <advance width="444"/>
  <outline>
    <component base="icyr.loclBGR" xOffset="-1"/>
    <contour>
      <point x="324.654" y="-170" type="line"/>
      <point x="443.654" y="-170" type="line"/>
      <point x="443.654" y="119" type="line"/>
      <point x="304.654" y="119" type="line"/>
      <point x="304.654" y="-0.49234" type="line"/>
      <point x="324.654" y="-0.49234" type="line"/>
    </contour>
  </outline>
</glyph>
<glyph name="two.tlf" format="2">
  <advance width="418"/>
  <outline>
    <contour>
      <point x="35" y="0" type="line"/>
      <point x="372" y="0" type="line"/>
      <point x="372" y="114" type="line"/>
      <point x="175" y="114" type="line"/>
      <point x="321" y="346" type="line" smooth="yes"/>
      <point x="362.561" y="412.043"/>
      <point x="372" y="449"/>
      <point x="372" y="504" type="curve" smooth="yes"/>
      <point x="372" y="554" type="line" smooth="yes"/>
      <point x="372" y="655"/>
      <point x="309" y="717"/>
      <point x="207" y="717" type="curve" smooth="yes"/>
      <point x="105" y="717"/>
      <point x="39" y="655"/>
      <point x="39" y="558" type="curve" smooth="yes"/>
      <point x="39" y="496" type="line"/>
      <point x="161" y="496" type="line"/>
      <point x="161" y="543" type="line" smooth="yes"/>
      <point x="161" y="584"/>
      <point x="175" y="604"/>
      <point x="204" y="604" type="curve" smooth="yes"/>
      <point x="233" y="604"/>
      <point x="248" y="585"/>
      <point x="248" y="548" type="curve" smooth="yes"/>
      <point x="248" y="508" type="line" smooth="yes"/>
      <point x="248" y="467"/>
      <point x="242.086" y="444.345"/>
      <point x="214" y="399" type="curve" smooth="yes"/>
      <point x="35" y="110" type="line"/>
    </contour>
  </outline>
</glyph>
<glyph name="yucyr.loclBGR" format="2">
  <advance width="610"/>
  <anchor x="401" y="604" name="top"/>
  <outline>
    <component base="o" xOffset="190"/>
    <contour>
      <point x="42" y="0" type="line"/>
      <point x="161" y="0" type="line"/>
      <point x="161" y="707" type="line"/>
      <point x="42" y="707" type="line"/>
    </contour>
    <contour>
      <point x="141" y="230" type="line"/>
      <point x="279" y="230" type="line"/>
      <point x="279" y="350" type="line"/>
      <point x="141" y="350" type="line"/>
    </contour>
  </outline>
  <guideline angle="90" name="h1" x="105" y="0"/>
  <guideline angle="90" name="h1" x="401" y="0"/>
</glyph>
<glyph name="zero.dnom" format="2">
  <advance width="291"/>
  <outline>
    <contour>
      <point x="145" y="-6" type="curve" smooth="yes"/>
      <point x="221.165" y="-6"/>
      <point x="259" y="32.1667"/>
      <point x="259" y="109" type="curve" smooth="yes"/>
      <point x="259" y="320" type="line" smooth="yes"/>
      <point x="259" y="396"/>
      <point x="221" y="434"/>
      <point x="145" y="434" type="curve" smooth="yes"/>
      <point x="69.3333" y="434"/>
      <point x="32" y="396.336"/>
      <point x="32" y="320" type="curve" smooth="yes"/>
      <point x="32" y="109" type="line" smooth="yes"/>
      <point x="32" y="32.3363"/>
      <point x="69.6696" y="-6"/>
    </contour>
    <contour>
      <point x="145" y="70" type="curve" smooth="yes"/>
      <point x="124.604" y="70"/>
      <point x="116" y="82.1644"/>
      <point x="116" y="111" type="curve" smooth="yes"/>
      <point x="116" y="318" type="line" smooth="yes"/>
      <point x="116" y="347.645"/>
      <point x="124.032" y="359"/>
      <point x="145" y="359" type="curve" smooth="yes"/>
      <point x="166.581" y="359"/>
      <point x="176" y="346.543"/>
      <point x="176" y="318" type="curve" smooth="yes"/>
      <point x="176" y="111" type="line" smooth="yes"/>
      <point x="176" y="83.2662"/>
      <point x="165.969" y="70"/>
    </contour>
  </outline>
</glyph>
<glyph name="zero.sups" format="2">
  <advance width="291"/>
  <outline>
    <contour>
      <point x="145" y="427" type="curve" smooth="yes"/>
      <point x="221.165" y="427"/>
      <point x="259" y="465.167"/>
      <point x="259" y="542" type="curve" smooth="yes"/>
      <point x="259" y="753" type="line" smooth="yes"/>
      <point x="259" y="829"/>
      <point x="221" y="867"/>
      <point x="145" y="867" type="curve" smooth="yes"/>
      <point x="69.3333" y="867"/>
      <point x="32" y="829.336"/>
      <point x="32" y="753" type="curve" smooth="yes"/>
      <point x="32" y="542" type="line" smooth="yes"/>
      <point x="32" y="465.336"/>
      <point x="69.6696" y="427"/>
    </contour>
    <contour>
      <point x="145" y="503" type="curve" smooth="yes"/>
      <point x="124.604" y="503"/>
      <point x="116" y="515.164"/>
      <point x="116" y="544" type="curve" smooth="yes"/>
      <point x="116" y="751" type="line" smooth="yes"/>
      <point x="116" y="780.645"/>
      <point x="124.032" y="792"/>
      <point x="145" y="792" type="curve" smooth="yes"/>
      <point x="166.581" y="792"/>
      <point x="176" y="779.543"/>
      <point x="176" y="751" type="curve" smooth="yes"/>
      <point x="176" y="544" type="line" smooth="yes"/>
      <point x="176" y="516.266"/>
      <point x="165.969" y="503"/>
    </contour>
  </outline>
</glyph>
